<svg width="118" height="118" viewBox="0 0 118 118" fill="none" xmlns="http://www.w3.org/2000/svg">
<g filter="url(#filter0_d)">
<path d="M9.11838 102.374H63.7181C63.9422 102.374 64.1641 102.33 64.3711 102.244C64.5781 102.158 64.7662 102.033 64.9246 101.874C65.0831 101.716 65.2087 101.528 65.2945 101.321C65.3802 101.114 65.4244 100.892 65.4244 100.668V96.2556C65.4271 95.2661 65.2335 94.2859 64.8548 93.3718C64.4762 92.4576 63.9199 91.6277 63.2183 90.93L62.0119 89.7235V63.1303C62.0066 58.7463 60.316 54.5321 57.2899 51.3599C54.2639 48.1877 50.1341 46.3003 45.7552 46.0884L46.3388 44.6292C47.6782 41.289 48.365 37.723 48.3619 34.1242C48.3619 33.9001 48.3178 33.6783 48.2321 33.4713C48.1463 33.2642 48.0206 33.0761 47.8622 32.9177C47.7038 32.7593 47.5157 32.6336 47.3087 32.5478C47.1016 32.4621 46.8798 32.418 46.6557 32.418H26.1808C25.9567 32.418 25.7349 32.4621 25.5278 32.5478C25.3208 32.6336 25.1327 32.7593 24.9743 32.9177C24.8158 33.0761 24.6902 33.2642 24.6044 33.4713C24.5187 33.6783 24.4745 33.9001 24.4746 34.1242C24.4715 37.723 25.1583 41.289 26.4977 44.6292L27.0813 46.0884C22.7024 46.3003 18.5726 48.1877 15.5466 51.3599C12.5205 54.5321 10.8299 58.7463 10.8246 63.1303V88.0172C10.8261 88.5584 10.7202 89.0944 10.5132 89.5944C10.3061 90.0944 10.0019 90.5483 9.61815 90.9298C8.91655 91.6276 8.36032 92.4576 7.98166 93.3717C7.60299 94.2859 7.40942 95.2661 7.41214 96.2556V100.668C7.41213 100.892 7.45626 101.114 7.542 101.321C7.62775 101.528 7.75343 101.716 7.91187 101.874C8.07031 102.033 8.25841 102.158 8.46542 102.244C8.67244 102.33 8.89431 102.374 9.11838 102.374V102.374ZM44.8916 35.8305C44.7157 38.4155 44.1349 40.9569 43.1704 43.3618L42.088 46.0679H30.7485L29.6661 43.3618C28.7016 40.9569 28.1208 38.4155 27.9449 35.8305H44.8916ZM10.8246 96.2556C10.8231 95.7144 10.929 95.1784 11.1361 94.6784C11.3432 94.1784 11.6474 93.7245 12.0311 93.3429C12.7327 92.6452 13.2889 91.8152 13.6676 90.901C14.0462 89.9869 14.2398 89.0067 14.2371 88.0172V63.1303C14.2412 59.5114 15.6806 56.0419 18.2396 53.4829C20.7986 50.9239 24.2681 49.4845 27.887 49.4804H44.9495C48.5684 49.4845 52.0379 50.9239 54.5969 53.4829C57.1559 56.0419 58.5953 59.5114 58.5994 63.1303V88.7239H51.7744V92.1364H59.5989L60.8054 93.343C61.1891 93.7246 61.4933 94.1785 61.7004 94.6784C61.9075 95.1784 62.0134 95.7145 62.0119 96.2556V98.9614H10.8246V96.2556Z" fill="white"/>
<path d="M37.1754 73.3685H33.7629C33.0841 73.3685 32.4331 73.0989 31.9531 72.6189C31.4731 72.1389 31.2035 71.4879 31.2035 70.8091C31.2035 70.1304 31.4731 69.4794 31.9531 68.9994C32.4331 68.5194 33.0841 68.2498 33.7629 68.2498H40.5878V64.8373H37.1754V61.4248H33.7629V64.8373C32.179 64.8373 30.6601 65.4665 29.5401 66.5864C28.4202 67.7063 27.791 69.2253 27.791 70.8091C27.791 72.393 28.4202 73.9119 29.5401 75.0319C30.6601 76.1518 32.179 76.781 33.7629 76.781H37.1754C37.8541 76.781 38.5051 77.0506 38.9851 77.5306C39.4651 78.0106 39.7347 78.6616 39.7347 79.3404C39.7347 80.0191 39.4651 80.6701 38.9851 81.1501C38.5051 81.6301 37.8541 81.8997 37.1754 81.8997H28.6441V85.3122H33.7629V88.0312H37.1754V85.3122C38.7592 85.3122 40.2781 84.683 41.3981 83.5631C42.518 82.4431 43.1472 80.9242 43.1472 79.3404C43.1472 77.7565 42.518 76.2376 41.3981 75.1176C40.2781 73.9977 38.7592 73.3685 37.1754 73.3685Z" fill="white"/>
<path d="M108.081 58.0124H101.256V40.95H104.668C104.892 40.95 105.114 40.9059 105.321 40.8202C105.528 40.7344 105.716 40.6087 105.875 40.4503C106.033 40.2919 106.159 40.1038 106.244 39.8967C106.33 39.6897 106.374 39.4679 106.374 39.2438V18.7689C106.374 18.5448 106.33 18.3229 106.244 18.1159C106.159 17.9089 106.033 17.7208 105.875 17.5624C105.716 17.4039 105.528 17.2783 105.321 17.1925C105.114 17.1068 104.892 17.0626 104.668 17.0626H104.663C105.776 15.588 106.376 13.7909 106.374 11.9439V8.53144C106.374 8.30737 106.33 8.08549 106.244 7.87848C106.159 7.67146 106.033 7.48337 105.875 7.32493C105.716 7.16649 105.528 7.04081 105.321 6.95506C105.114 6.86932 104.892 6.82519 104.668 6.8252H91.0181C90.7941 6.82519 90.5722 6.86932 90.3652 6.95506C90.1582 7.04081 89.9701 7.16649 89.8116 7.32493C89.6532 7.48337 89.5275 7.67146 89.4418 7.87848C89.356 8.08549 89.3119 8.30737 89.3119 8.53144V11.9439C89.3104 13.301 88.7706 14.6021 87.811 15.5617C86.8514 16.5213 85.5503 17.0611 84.1932 17.0626H56.8933C56.6693 17.0626 56.4474 17.1068 56.2404 17.1925C56.0334 17.2783 55.8453 17.4039 55.6868 17.5624C55.5284 17.7208 55.4027 17.9089 55.3169 18.1159C55.2312 18.3229 55.1871 18.5448 55.1871 18.7689V37.5375H51.7746C51.5505 37.5375 51.3287 37.5817 51.1216 37.6674C50.9146 37.7532 50.7265 37.8788 50.5681 38.0373C50.4097 38.1957 50.284 38.3838 50.1982 38.5908C50.1125 38.7978 50.0684 39.0197 50.0684 39.2438V44.3625H53.4808V40.95H67.1308V44.3625H56.8933V47.775H67.1308V51.1875H62.012V54.6H67.1308V58.0124H65.4245V61.4249H75.662V64.8374H68.837V68.2499H75.662V71.6624H68.837V75.0749H75.662V78.4873H63.7183V81.8998H72.2495V85.3123H68.837V88.7248H72.2495V92.1373H68.837V95.5498H72.2495V98.9622H67.1308V102.375H104.668C104.892 102.375 105.114 102.331 105.321 102.245C105.528 102.159 105.716 102.033 105.875 101.875C106.033 101.717 106.159 101.528 106.244 101.321C106.33 101.114 106.374 100.893 106.374 100.668V81.8998H108.081C108.305 81.8998 108.527 81.8557 108.734 81.77C108.941 81.6842 109.129 81.5585 109.287 81.4001C109.446 81.2417 109.571 81.0536 109.657 80.8465C109.743 80.6395 109.787 80.4177 109.787 80.1936V59.7187C109.787 59.4946 109.743 59.2727 109.657 59.0657C109.571 58.8587 109.446 58.6706 109.287 58.5122C109.129 58.3537 108.941 58.2281 108.734 58.1423C108.527 58.0566 108.305 58.0124 108.081 58.0124V58.0124ZM106.374 64.8374H92.7244V61.4249H106.374V64.8374ZM89.3119 88.7248H102.962V92.1373H89.3119V88.7248ZM92.7244 68.2499H106.374V71.6624H92.7244V68.2499ZM84.1932 58.0124V54.6H97.8431V58.0124H84.1932ZM97.8431 51.1875H84.1932V47.775H97.8431V51.1875ZM97.8431 44.3625H84.1932V40.95H97.8431V44.3625ZM102.962 20.4751V23.8876H89.3119V20.4751H102.962ZM89.3119 27.3001H102.962V30.7126H89.3119V27.3001ZM89.3119 37.5375V34.1251H102.962V37.5375H89.3119ZM92.7244 11.9439V10.2377H102.962V11.9439C102.96 13.301 102.421 14.6021 101.461 15.5617C100.501 16.5213 99.2002 17.0611 97.8431 17.0626H91.0135C92.1256 15.588 92.7263 13.7909 92.7244 11.9439V11.9439ZM85.8994 20.4751V37.5375H75.662V20.4751H85.8994ZM58.5996 20.4751H72.2495V23.8876H62.012V27.3001H72.2495V30.7126H62.012V34.1251H72.2495V37.5375H58.5996V20.4751ZM70.5433 40.95H80.7807V58.0124H70.5433V40.95ZM79.0745 61.4249H89.3119V78.4873H79.0745V61.4249ZM75.662 81.8998H85.8994V98.9622H75.662V81.8998ZM89.3119 98.9622V95.5498H102.962V98.9622H89.3119ZM102.962 85.3123H89.3119V81.8998H102.962V85.3123ZM92.7244 78.4873V75.0749H106.374V78.4873H92.7244Z" fill="white"/>
</g>
<defs>
<filter id="filter0_d" x="0" y="0" width="117.199" height="117.199" filterUnits="userSpaceOnUse" color-interpolation-filters="sRGB">
<feFlood flood-opacity="0" result="BackgroundImageFix"/>
<feColorMatrix in="SourceAlpha" type="matrix" values="0 0 0 0 0 0 0 0 0 0 0 0 0 0 0 0 0 0 127 0"/>
<feOffset dy="4"/>
<feGaussianBlur stdDeviation="2"/>
<feColorMatrix type="matrix" values="0 0 0 0 0 0 0 0 0 0 0 0 0 0 0 0 0 0 0.31 0"/>
<feBlend mode="normal" in2="BackgroundImageFix" result="effect1_dropShadow"/>
<feBlend mode="normal" in="SourceGraphic" in2="effect1_dropShadow" result="shape"/>
</filter>
</defs>
</svg>
