<?xml version="1.0"?>
<svg xmlns="http://www.w3.org/2000/svg" id="Outline" viewBox="0 0 512 512" width="512" height="512"><path d="M472,240H328a8,8,0,0,0-8,8v56H184a8,8,0,0,0-8,8v56H40a8,8,0,0,0-8,8V488a8,8,0,0,0,8,8H472a8,8,0,0,0,8-8V248A8,8,0,0,0,472,240ZM192,320H320V480H192ZM48,384H176v96H48Zm416,96H336V256H464Z"/><path d="M479.586,70.352a8,8,0,0,0-6.378-5.369l-40-6.112L415.242,20.6a8,8,0,0,0-14.484,0L382.8,58.871l-40,6.112a8,8,0,0,0-4.518,13.5l29.181,29.908-6.9,42.325A8,8,0,0,0,372.316,159L408,139.275,443.684,159a8,8,0,0,0,11.766-8.289l-6.9-42.325,29.181-29.908A8,8,0,0,0,479.586,70.352ZM434.274,100.1a8,8,0,0,0-2.17,6.875l4.9,30.05L411.87,123.134a8,8,0,0,0-7.74,0l-25.136,13.894,4.9-30.05a8,8,0,0,0-2.17-6.875L360.6,78.448l28.833-4.4a8,8,0,0,0,6.033-4.509L408,42.828l12.535,26.706a8,8,0,0,0,6.033,4.509l28.833,4.4Z"/><path d="M40,264h88a8,8,0,0,0,7.155-4.422L164.944,200H272a8,8,0,0,0,6.784-3.76l40-64a8,8,0,1,0-13.568-8.48L267.566,184H160a8,8,0,0,0-7.155,4.422L123.056,248H40a8,8,0,0,0,0,16Z"/></svg>
