<svg width="123" height="117" viewBox="0 0 123 117" fill="none" xmlns="http://www.w3.org/2000/svg">
<g filter="url(#filter0_d)">
<path d="M97.3761 45.4775C95.8469 45.4775 94.6025 46.6547 94.6025 48.1012C94.6025 49.5476 95.8469 50.7248 97.3761 50.7248C98.9052 50.7248 100.15 49.5476 100.15 48.1012C100.15 46.6547 98.9052 45.4775 97.3761 45.4775Z" fill="white"/>
<path d="M77.0372 45.4775C75.5081 45.4775 74.2637 46.6547 74.2637 48.1012C74.2637 49.5476 75.5081 50.7248 77.0372 50.7248C78.5663 50.7248 79.8107 49.5476 79.8107 48.1012C79.8107 46.6547 78.5663 45.4775 77.0372 45.4775Z" fill="white"/>
<path d="M99.2257 29.7355C100.755 29.7355 101.999 28.5584 101.999 27.1119C101.999 25.6654 100.755 24.4883 99.2257 24.4883C97.6965 24.4883 96.4521 25.6654 96.4521 27.1119C96.4521 28.5584 97.6965 29.7355 99.2257 29.7355Z" fill="white"/>
<path d="M75.1876 29.7355C76.7167 29.7355 77.9611 28.5584 77.9611 27.1119C77.9611 25.6654 76.7167 24.4883 75.1876 24.4883C73.6585 24.4883 72.4141 25.6654 72.4141 27.1119C72.4141 28.5584 73.6585 29.7355 75.1876 29.7355Z" fill="white"/>
<path d="M116.992 21.6209C115.171 19.0357 112.122 17.4913 108.834 17.4913H108.311L108.333 17.4703C110.21 15.6967 111.243 13.3337 111.243 10.8238C111.243 7.88012 109.757 5.06935 107.268 3.30278L103.108 0.350342C102.547 -0.0501968 101.797 -0.109665 101.172 0.184179C100.545 0.481522 100.149 1.0867 100.149 1.7496C100.149 4.45717 99.3726 7.07204 97.9692 9.41231C96.4789 8.98203 94.8998 8.74591 93.2616 8.74591H81.1486C79.5123 8.74591 77.9313 8.98203 76.4429 9.41231C75.0395 7.07204 74.2629 4.45717 74.2629 1.7496C74.2629 1.0867 73.8672 0.481522 73.2404 0.184179C72.6154 -0.107916 71.8629 -0.0466986 71.3045 0.350342L67.1441 3.30278C64.6554 5.0676 63.1687 7.88012 63.1687 10.8238C63.1687 13.3355 64.2024 15.6967 66.0791 17.4721L66.1013 17.4913H65.578C62.2923 17.4913 59.2414 19.0357 57.4201 21.6209C56.3422 23.1478 55.7727 24.9284 55.7727 26.7666V29.887L28.5458 32.2273C24.245 32.5963 20.3398 34.3699 17.3721 37.0844C9.45647 39.6294 4 46.7428 4 54.7116V86.5798C4 88.7697 5.10572 90.8616 6.96029 92.1769L12.1376 95.8499C12.4611 96.0825 12.8531 96.1997 13.2451 96.1997C13.5262 96.1997 13.8109 96.1385 14.0716 96.0161C14.6984 95.7187 15.0941 95.1136 15.0941 94.4507V87.199C15.0941 84.5316 13.5262 82.1337 11.0059 80.9408L7.69805 79.3771V54.7116C7.69805 50.3949 9.6728 46.3895 12.8901 43.5823C12.6571 44.177 12.4445 44.7804 12.2799 45.4066L12.0858 46.1517C11.6161 47.92 11.4442 49.739 11.5736 51.5581L13.2488 75.328C13.2562 75.433 13.2747 75.5344 13.3006 75.6358L18.7552 96.2749C16.5456 97.8718 15.0941 100.366 15.0941 103.196V106.694C15.0941 107.661 15.9207 108.443 16.9432 108.443H31.7353H39.1314C40.1539 108.443 40.9805 107.661 40.9805 106.694V103.196C40.9805 99.6804 38.7635 96.6615 35.5924 95.2745L36.2192 91.1309C36.8424 86.9908 37.1789 82.7878 37.251 78.611C37.3249 78.6285 37.3952 78.653 37.4692 78.6705C38.1681 82.1057 40.9231 84.9759 44.6785 86.4276V90.9525H48.3766V87.3354C48.983 87.4054 49.5969 87.4544 50.2256 87.4544C50.8542 87.4544 51.4681 87.4054 52.0746 87.3354V90.9525H55.7727V86.4276C59.1212 85.1333 61.6747 82.7109 62.6843 79.7672C66.1087 79.2757 69.4906 78.5253 72.8022 77.5004C73.2755 83.7481 74.1926 89.9695 75.6275 96.0825L75.7347 96.5391C73.723 98.1447 72.4139 100.516 72.4139 103.196V106.694C72.4139 107.661 73.2404 108.443 74.2629 108.443H89.0551H96.4512C97.4737 108.443 98.3002 107.661 98.3002 106.694V103.196C98.3002 99.7276 96.1387 96.7507 93.0379 95.3374L93.3041 94.3282C95.3769 86.4906 96.429 78.4204 96.4456 70.3449C98.7661 66.6788 100.083 62.4653 100.133 58.0559C104.507 56.2596 107.473 52.9258 107.536 49.0989H107.54L108.869 31.4996C110.519 32.6121 112.473 33.233 114.538 33.233H116.79C117.813 33.233 118.639 32.4511 118.639 31.4839V26.7666C118.639 24.9284 118.07 23.1478 116.992 21.6209ZM9.35292 84.0699C10.6121 84.6663 11.3961 85.8662 11.3961 87.199V90.9525L9.17911 89.3801C8.2509 88.7224 7.69805 87.6747 7.69805 86.5798V83.288L9.35292 84.0699ZM92.9695 12.2441H93.2635C100.118 12.2441 105.696 17.521 105.696 24.0066C105.696 24.2865 105.685 24.5681 105.665 24.8444L105.058 32.8762C104.064 33.1035 103.043 33.233 101.998 33.233C94.8629 33.233 89.0551 27.7391 89.0551 20.9894C89.0551 17.6889 90.4825 14.5423 92.9695 12.2441ZM103.548 5.03612L105.049 6.09956C106.612 7.20847 107.545 8.97504 107.545 10.8238C107.545 12.2388 106.972 13.6083 105.998 14.6753C104.737 13.1378 103.174 11.8383 101.392 10.85C102.44 9.02576 103.172 7.07029 103.548 5.03612ZM88.1897 12.2441C86.374 14.8117 85.357 17.8429 85.357 20.9894C85.357 29.6701 92.8215 36.7311 101.998 36.7311C102.941 36.7311 103.869 36.6437 104.785 36.4985L104.334 42.4664C101.623 40.0421 97.4441 38.4802 92.7531 38.4802C90.8468 38.4802 88.9848 38.7373 87.206 39.2463C85.4273 38.7373 83.5653 38.4802 81.659 38.4802C76.968 38.4802 72.7892 40.0421 70.0785 42.4646L68.7491 24.8462C68.7269 24.5681 68.7158 24.2865 68.7158 24.0066C68.7158 17.521 74.2943 12.2441 81.1505 12.2441H88.1897ZM69.363 6.09956L70.8644 5.03612C71.2397 7.07029 71.9719 9.02576 73.0185 10.8483C71.236 11.8383 69.6755 13.1378 68.4126 14.6735C67.44 13.6083 66.8668 12.2371 66.8668 10.8238C66.8668 8.97504 67.8005 7.20847 69.363 6.09956ZM59.4707 26.7666C59.4707 25.6227 59.8239 24.5138 60.4969 23.5623C61.5841 22.0179 63.3814 21.0944 65.334 21.0192C65.1287 21.9847 65.0178 22.9834 65.0178 24.0066C65.0178 24.3687 65.0326 24.729 65.0584 25.0928L65.2082 27.0815L64.1894 28.0452C63.0375 29.1331 61.5046 29.7348 59.8738 29.7348H59.4707V26.7666ZM46.5275 38.4802C46.5275 42.3387 43.2104 45.4765 39.1314 45.4765C35.0525 45.4765 31.7353 42.3387 31.7353 38.4802C31.7353 37.3958 32.0053 36.3533 32.5027 35.4001L45.076 34.3192C46.0228 35.5278 46.5275 36.9655 46.5275 38.4802ZM15.5952 56.0182C19.4375 56.2666 22.4902 59.2715 22.4902 62.9673C22.4902 66.3482 19.9423 69.1748 16.5678 69.8219L15.5952 56.0182ZM29.8863 104.945H26.1883V101.447H22.4902V104.945H18.7922V103.196C18.7922 100.303 21.281 97.9488 24.3393 97.9488C27.3975 97.9488 29.8863 100.303 29.8863 103.196V104.945ZM37.2824 103.196V104.945H33.5844V103.196C33.5844 101.221 32.8633 99.4198 31.6928 97.9541C31.7076 97.9541 31.7206 97.9488 31.7353 97.9488C34.7936 97.9488 37.2824 100.303 37.2824 103.196ZM32.5563 90.6342L31.9757 94.4734C31.8944 94.4716 31.8186 94.4507 31.7353 94.4507C30.5242 94.4507 29.3316 94.6763 28.2241 95.1066C29.1301 89.0513 30.748 83.1464 33.0629 77.4654C33.2312 77.5179 33.4032 77.5528 33.5714 77.6053C33.5418 81.9465 33.2072 86.3279 32.5563 90.6342ZM50.2256 83.9562C46.3112 83.9562 42.9774 82.0987 41.6313 79.4926C45.2887 80.1135 48.9941 80.458 52.731 80.458H53.2654C54.9572 80.458 56.6435 80.3933 58.3225 80.2656C56.7563 82.452 53.735 83.9562 50.2256 83.9562ZM87.206 104.945H83.508V101.447H79.81V104.945H76.1119V103.196C76.1119 100.303 78.6007 97.9488 81.659 97.9488C84.7173 97.9488 87.206 100.303 87.206 103.196V104.945ZM94.6021 104.945H90.9041V103.196C90.9041 101.221 90.183 99.4198 89.0125 97.9541C89.0273 97.9541 89.0403 97.9488 89.0551 97.9488C92.1133 97.9488 94.6021 100.303 94.6021 103.196V104.945ZM89.0551 94.4507C88.5706 94.4507 88.0899 94.4979 87.6147 94.5678L87.6184 94.5311C88.26 89.0618 88.6705 83.5259 88.8813 77.9814C90.2347 77.1051 91.4588 76.1028 92.5922 75.0254C92.2576 81.2469 91.3109 87.4351 89.7152 93.4799L89.4489 94.4874C89.3176 94.4821 89.19 94.4507 89.0551 94.4507ZM89.0033 73.4617C89.0236 72.2951 89.0551 71.1285 89.0551 69.9636L85.357 70.0003C85.357 78.0426 84.8818 86.1635 83.9425 94.1446L83.8741 94.7323C83.1604 94.5661 82.4263 94.4507 81.659 94.4507C80.7788 94.4507 79.9449 94.6046 79.1369 94.8232C77.1381 86.1478 76.1119 77.2537 76.1119 68.2145L72.4139 68.3842C72.4139 70.2225 72.4897 72.0625 72.5747 73.9008L71.9775 74.0897C65.9312 75.9927 59.6371 76.9599 53.2672 76.9599H52.7329C46.5201 76.9599 40.3832 76.0241 34.4756 74.2121C35.0691 72.9283 35.6849 71.6514 36.3505 70.3939L37.0883 68.9963L33.7804 67.4309L33.0426 68.8284C28.7769 76.8987 25.9535 85.5006 24.5907 94.4734C24.5038 94.4716 24.4243 94.4507 24.3393 94.4507C23.583 94.4507 22.86 94.5608 22.1556 94.7235L16.9284 74.938L16.8156 73.3218C22.1167 72.5365 26.1883 68.1988 26.1883 62.9673C26.1883 57.26 21.3457 52.6127 15.3456 52.4851L15.2642 51.3254C15.1607 49.8702 15.2975 48.415 15.6729 46.9982L15.867 46.2514C17.3555 40.6246 22.3811 36.4793 28.4385 35.7814C28.1945 36.6559 28.0373 37.5549 28.0373 38.4802C28.0373 44.2679 33.013 48.9747 39.1314 48.9747C45.2499 48.9747 50.2256 44.2679 50.2256 38.4802C50.2256 36.892 49.8336 35.3686 49.1254 33.9711L57.7104 33.233H59.8738C61.9391 33.233 63.8954 32.6121 65.5429 31.4979L66.8723 49.0989H66.876C66.9703 54.8288 73.5621 59.4691 81.659 59.4691C83.5653 59.4691 85.4273 59.212 87.206 58.703C88.9848 59.212 90.8468 59.4691 92.7531 59.4691C94.0012 59.4691 95.2049 59.3467 96.3624 59.1403C95.9889 64.6779 93.3522 69.8062 89.0033 73.4617ZM92.7531 55.971C91.0372 55.971 89.3712 55.7156 87.7996 55.2101C87.6073 55.1489 87.4057 55.1174 87.206 55.1174C87.0063 55.1174 86.8048 55.1489 86.6125 55.2101C85.0408 55.7156 83.3749 55.971 81.659 55.971C75.646 55.971 70.5648 52.7667 70.5648 48.9747C70.5648 45.1827 75.646 41.9784 81.659 41.9784C83.3749 41.9784 85.0408 42.2337 86.6125 42.7392C86.999 42.8616 87.415 42.8616 87.8014 42.7392C89.3712 42.2337 91.0372 41.9784 92.7531 41.9784C98.7661 41.9784 103.847 45.1827 103.847 48.9747C103.847 52.7667 98.7661 55.971 92.7531 55.971ZM114.941 29.7348H114.538C112.907 29.7348 111.375 29.1331 110.221 28.0435L109.204 27.0815L109.354 25.0893C109.38 24.729 109.394 24.3687 109.394 24.0066C109.394 22.9834 109.283 21.9864 109.08 21.0192C111.031 21.0944 112.828 22.0179 113.917 23.5623C114.588 24.5138 114.941 25.621 114.941 26.7666V29.7348Z" fill="white"/>
<path d="M59.4717 55.9738C59.4107 55.9738 59.3496 55.9738 59.2849 55.9756C58.4288 51.9877 54.692 48.9775 50.2266 48.9775C45.1288 48.9775 40.9814 52.9007 40.9814 57.7229C40.9814 62.5451 45.1288 66.4683 50.2266 66.4683C50.2876 66.4683 50.3486 66.4683 50.4133 66.4666C51.2694 70.4545 55.0063 73.4646 59.4717 73.4646C64.5694 73.4646 68.7168 69.5414 68.7168 64.7192C68.7168 59.897 64.5694 55.9738 59.4717 55.9738ZM59.4717 69.9665C56.4134 69.9665 53.9246 67.6122 53.9191 64.8277C53.9283 64.7682 53.9486 64.5933 53.9505 64.5338C53.9745 63.9811 53.7194 63.4494 53.2627 63.1013C52.9298 62.8477 52.5212 62.7148 52.1033 62.7148C51.948 62.7148 51.7908 62.734 51.6374 62.7708C51.0882 62.9072 50.6407 62.9702 50.2266 62.9702C47.1683 62.9702 44.6795 60.6159 44.6795 57.7229C44.6795 54.8299 47.1683 52.4757 50.2266 52.4757C53.2848 52.4757 55.7736 54.8299 55.7792 57.6145C55.7699 57.6722 55.7496 57.8506 55.7477 57.9101C55.7237 58.4628 55.9807 58.9962 56.4374 59.3426C56.8941 59.6871 57.4969 59.8096 58.0664 59.6696C58.61 59.535 59.0556 59.472 59.4717 59.472C62.53 59.472 65.0187 61.8263 65.0187 64.7192C65.0187 67.6122 62.53 69.9665 59.4717 69.9665Z" fill="white"/>
</g>
<defs>
<filter id="filter0_d" x="0" y="0" width="122.639" height="116.443" filterUnits="userSpaceOnUse" color-interpolation-filters="sRGB">
<feFlood flood-opacity="0" result="BackgroundImageFix"/>
<feColorMatrix in="SourceAlpha" type="matrix" values="0 0 0 0 0 0 0 0 0 0 0 0 0 0 0 0 0 0 127 0"/>
<feOffset dy="4"/>
<feGaussianBlur stdDeviation="2"/>
<feColorMatrix type="matrix" values="0 0 0 0 0 0 0 0 0 0 0 0 0 0 0 0 0 0 0.31 0"/>
<feBlend mode="normal" in2="BackgroundImageFix" result="effect1_dropShadow"/>
<feBlend mode="normal" in="SourceGraphic" in2="effect1_dropShadow" result="shape"/>
</filter>
</defs>
</svg>
