<svg width="102" height="102" viewBox="0 0 102 102" fill="none" xmlns="http://www.w3.org/2000/svg">
<g filter="url(#filter0_d)">
<g clip-path="url(#clip0)">
<path d="M35.4684 71.4721C35.4447 71.3554 35.4101 71.2405 35.3645 71.1292C35.3189 71.0198 35.2623 70.914 35.1967 70.8155C35.131 70.7152 35.0544 70.6222 34.9705 70.5383C34.8867 70.4544 34.7936 70.3778 34.6933 70.3122C34.5949 70.2465 34.4891 70.19 34.3778 70.1444C34.2684 70.0988 34.1535 70.0623 34.0368 70.0404C33.8015 69.993 33.559 69.993 33.3255 70.0404C33.2088 70.0623 33.0939 70.0988 32.9827 70.1444C32.8732 70.19 32.7675 70.2465 32.669 70.3122C32.5687 70.3778 32.4757 70.4544 32.3918 70.5383C32.3079 70.6222 32.2313 70.7152 32.1656 70.8155C32.0982 70.914 32.0434 71.0198 31.9979 71.1292C31.9523 71.2405 31.9158 71.3554 31.8939 71.4721C31.8702 71.5888 31.8574 71.7092 31.8574 71.8277C31.8574 71.9463 31.8702 72.0666 31.8939 72.1833C31.9158 72.3001 31.9523 72.415 31.9979 72.5244C32.0434 72.6356 32.0982 72.7414 32.1656 72.8399C32.2313 72.9402 32.3079 73.0332 32.3918 73.1171C32.4757 73.201 32.5687 73.2776 32.669 73.3432C32.7675 73.4091 32.8732 73.4656 32.9827 73.5112C33.0939 73.5568 33.2088 73.5933 33.3255 73.6152C33.4423 73.6389 33.5626 73.6516 33.6812 73.6516C33.7997 73.6516 33.9201 73.6389 34.0368 73.6152C34.1535 73.5933 34.2684 73.5568 34.3778 73.5112C34.4891 73.4656 34.5949 73.4089 34.6933 73.3432C34.7936 73.2776 34.8867 73.201 34.9705 73.1171C35.0544 73.0332 35.131 72.9402 35.1967 72.8399C35.2623 72.7414 35.3189 72.6356 35.3645 72.5244C35.4101 72.415 35.4447 72.3001 35.4684 72.1833C35.4921 72.0666 35.5049 71.9463 35.5049 71.8277C35.5049 71.7092 35.4921 71.5888 35.4684 71.4721Z" fill="white"/>
<path d="M87.8906 72.0352C87.8834 72.0169 87.8762 71.9989 87.8685 71.981C86.1899 68.0532 82.2532 66.6015 77.5943 68.1927L64.8887 71.7064C64.1541 69.4818 62.3218 67.5887 59.731 66.6272C59.7149 66.6214 59.6989 66.6156 59.6827 66.6101L45.7163 61.8698C44.5539 60.3673 40.9126 56.5225 34.0949 56.5225C29.3304 56.5225 25.1156 59.791 22.7042 63.3536H5.82374C4.81649 63.3536 4 64.1701 4 65.1774V88.1705C4 89.1778 4.81649 89.9942 5.82374 89.9942H16.6671C17.6744 89.9942 18.4909 89.1778 18.4909 88.1705V86.5959H23.576C24.5832 86.5959 25.3997 85.7794 25.3997 84.7722V84.2473C28.364 84.5059 29.339 85.0682 32.0615 86.638C34.1551 87.8453 37.3195 89.67 43.0179 92.2322C43.0444 92.244 43.0712 92.2553 43.098 92.2659C44.1917 92.6961 46.3296 93.372 48.9655 93.372C50.8002 93.372 52.8765 93.0443 55.0077 92.0782L83.0916 82.0229C83.1415 82.005 83.1908 81.9849 83.2389 81.9627C85.9229 80.7278 89.9226 77.2476 87.8906 72.0352ZM14.8434 86.3466H7.64747V67.0009H14.8434V86.3466ZM21.7522 82.9482H18.4909V67.0009H21.7522V82.9482ZM81.7816 78.6174L53.7103 88.6682C53.6857 88.677 53.6523 88.6901 53.628 88.6999C53.6034 88.71 53.5788 88.7205 53.5545 88.7317C49.645 90.5284 45.9288 89.4528 44.4723 88.8865C38.9679 86.4097 36.0301 84.7156 33.8835 83.4779C30.8992 81.757 29.4612 80.9275 25.3997 80.5922V65.9034C27.1284 63.07 30.4808 60.1698 34.0951 60.1698C40.2932 60.1698 42.9196 64.2011 43.0228 64.3638C43.2455 64.726 43.5878 64.999 43.9903 65.1356L58.4845 70.055C60.7993 70.9238 62.0227 72.9062 61.4604 74.8831C61.2009 75.7961 60.6013 76.5533 59.7722 77.0153C58.9502 77.4732 58.0001 77.5864 57.0944 77.3359L40.755 72.1579C39.7943 71.8535 38.7697 72.3853 38.4655 73.3455C38.1611 74.3057 38.6929 75.3307 39.6531 75.6351L56.021 80.8219C56.0383 80.8274 56.0556 80.8327 56.0731 80.8376C56.7266 81.0235 57.3919 81.1154 58.0532 81.1154C59.2637 81.1154 60.461 80.807 61.5476 80.2015C63.2278 79.2654 64.4428 77.7309 64.9688 75.8807C65.0107 75.733 65.0479 75.5853 65.0802 75.4375L78.7733 71.6442C80.751 70.9687 83.3471 70.7252 84.503 73.3873C85.6993 76.5126 82.5899 78.2319 81.7816 78.6174Z" fill="white"/>
<path d="M69.4829 23.9897C69.4592 23.8729 69.4246 23.758 69.3772 23.6468C69.3316 23.5374 69.2769 23.4316 69.2094 23.3331C69.1437 23.2328 69.0671 23.1398 68.9832 23.0559C68.8993 22.972 68.8063 22.8954 68.706 22.8298C68.6075 22.7641 68.5018 22.7076 68.3923 22.662C68.2811 22.6164 68.1662 22.5799 68.0513 22.558C67.816 22.5106 67.5735 22.5106 67.3382 22.558C67.2215 22.5799 67.1066 22.6164 66.9972 22.662C66.8859 22.7076 66.7802 22.7641 66.6817 22.8298C66.5814 22.8954 66.4884 22.972 66.4045 23.0559C66.3206 23.1398 66.244 23.2328 66.1783 23.3331C66.1127 23.4316 66.0561 23.5374 66.0105 23.6468C65.9649 23.758 65.9285 23.8729 65.9066 23.9897C65.8829 24.1064 65.8701 24.2267 65.8701 24.3453C65.8701 24.4638 65.8829 24.5842 65.9066 24.7009C65.9285 24.8176 65.9649 24.9325 66.0105 25.042C66.0561 25.1532 66.1127 25.259 66.1783 25.3575C66.244 25.4578 66.3206 25.5508 66.4045 25.6347C66.4884 25.7186 66.5814 25.7952 66.6817 25.8608C66.7802 25.9265 66.8859 25.983 66.9972 26.0286C67.1066 26.0742 67.2215 26.1088 67.3382 26.1325C67.4549 26.1563 67.5753 26.169 67.6939 26.169C67.8124 26.169 67.9328 26.1563 68.0513 26.1325C68.1662 26.1088 68.2811 26.0742 68.3923 26.0286C68.5018 25.983 68.6075 25.9265 68.706 25.8608C68.8063 25.7952 68.8993 25.7186 68.9832 25.6347C69.0671 25.5508 69.1437 25.4578 69.2094 25.3575C69.2769 25.259 69.3316 25.1532 69.3772 25.042C69.4246 24.9325 69.4592 24.8176 69.4829 24.7009C69.5067 24.5842 69.5176 24.4638 69.5176 24.3453C69.5176 24.2267 69.5067 24.1064 69.4829 23.9897Z" fill="white"/>
<path d="M95.5508 6.17951H84.7074C83.7002 6.17951 82.8837 6.996 82.8837 8.00325V9.57786H77.7986C76.7913 9.57786 75.9748 10.3943 75.9748 11.4016V11.9265C73.0105 11.6677 72.0356 11.1056 69.3133 9.53573C67.2196 8.32842 64.0553 6.50377 58.3566 3.94161C58.3302 3.92957 58.3036 3.91845 58.2764 3.90787C56.4215 3.17801 51.5599 1.742 46.3676 4.09517L39.0289 6.7228L32.8429 0.537056C32.1308 -0.175113 30.976 -0.175113 30.2638 0.537056L9.95503 20.8456C9.29812 21.5027 9.1721 22.642 9.95503 23.4249L44.6584 58.1283C45.2137 58.6838 46.514 58.8517 47.2377 58.1283L65.7787 39.5874C66.2607 39.629 66.761 39.6515 67.2794 39.6515C72.0441 39.6515 76.2588 36.3829 78.67 32.8205H95.5508C96.5581 32.8205 97.3746 32.004 97.3746 30.9967V8.00325C97.3746 6.996 96.5581 6.17951 95.5508 6.17951ZM31.5532 4.40575L35.7098 8.56241C34.4743 9.32655 33.0457 9.73543 31.5532 9.73543C30.0605 9.73543 28.6321 9.32673 27.3965 8.56241L31.5532 4.40575ZM17.9806 26.292L13.8239 22.1352L17.9806 17.9785C18.7447 19.2141 19.1536 20.6427 19.1536 22.1352C19.1536 23.6277 18.7449 25.0563 17.9806 26.292ZM45.9481 54.2594L41.7922 50.1035C44.3295 48.5376 47.5663 48.5376 50.1039 50.1035L45.9481 54.2594ZM52.7315 47.4762C48.7014 44.5527 43.1948 44.5527 39.1647 47.4762L20.608 28.9193C22.0322 26.9606 22.8011 24.6078 22.8011 22.1352C22.8011 19.6624 22.0324 17.3098 20.608 15.3511L24.7692 11.19C26.7279 12.6142 29.0806 13.3831 31.5534 13.3831C34.0262 13.3831 36.3788 12.6142 38.3375 11.19L42.282 15.1346C41.4309 15.2603 40.6009 15.5408 39.8269 15.9721C38.5197 16.7005 37.494 17.7912 36.8553 19.1109C34.7982 19.4919 32.8936 20.4878 31.3996 21.9816C27.3464 26.0351 27.3464 32.6302 31.3998 36.6837C33.4263 38.7102 36.0884 39.7237 38.7507 39.7237C41.4128 39.7237 44.0751 38.7104 46.1019 36.6837C47.4204 35.3651 48.3441 33.7446 48.8068 31.9784L54.9645 34.0683C54.2713 37.2795 54.9813 40.6578 56.8964 43.3113L52.7315 47.4762ZM41.6435 29.5465C41.6596 29.5523 41.6756 29.5582 41.6919 29.5636L45.3386 30.8014C45.0632 32.0443 44.4401 33.187 43.5227 34.1046C40.8914 36.7355 36.61 36.7358 33.9791 34.1046C31.3478 31.4735 31.3478 27.1922 33.9791 24.5609C34.6138 23.9259 35.3628 23.4297 36.1789 23.0932C36.5156 25.8948 38.5328 28.3921 41.6435 29.5465ZM59.5242 40.6833C58.8202 39.5362 58.4219 38.2269 58.359 36.8907C59.2326 37.5222 60.3002 38.141 61.5753 38.6322L59.5242 40.6833ZM75.9747 30.2696C74.2461 33.1033 70.8937 36.0036 67.2794 36.0036C66.6032 36.0036 65.9695 35.9555 65.3769 35.8698C65.3746 35.8694 65.3722 35.869 65.3698 35.8687C61.4313 35.2966 59.3126 33.0581 58.6143 32.1718C58.5771 32.1171 58.4186 31.9097 58.3951 31.8752C58.1826 31.4955 57.8343 31.1902 57.3901 31.0394L42.8899 26.1181C40.5759 25.2496 39.3527 23.2681 39.9134 21.2919C39.9137 21.2906 39.9141 21.2893 39.9145 21.2881C39.915 21.2866 39.9154 21.285 39.9157 21.2835C40.1763 20.3735 40.7749 19.6186 41.6021 19.1578C42.4239 18.6998 43.3739 18.5862 44.2799 18.8373L60.6193 24.0151C61.5797 24.3199 62.6047 23.7877 62.9089 22.8275C63.2131 21.8673 62.6814 20.8424 61.7212 20.538L48.7262 16.42L48.6128 16.3065C48.6117 16.3054 48.6106 16.3042 48.6093 16.3031L41.8815 9.57531L47.6642 7.50464C47.6838 7.49753 47.7078 7.48859 47.7272 7.48075C47.7321 7.47874 47.7416 7.4751 47.7463 7.47309C47.7711 7.46306 47.7956 7.45248 47.8198 7.44136C51.7292 5.64461 55.4452 6.72007 56.9018 7.28652C62.4064 9.76334 65.3445 11.4574 67.491 12.6952C70.4754 14.4162 71.9134 15.2455 75.9747 15.5809V30.2696ZM82.8837 29.1726H79.6223V13.2253H82.8837V29.1726ZM93.7271 29.1726H86.5312V9.82698H93.7271V29.1726Z" fill="white"/>
</g>
</g>
<defs>
<filter id="filter0_d" x="0" y="0" width="101.375" height="101.375" filterUnits="userSpaceOnUse" color-interpolation-filters="sRGB">
<feFlood flood-opacity="0" result="BackgroundImageFix"/>
<feColorMatrix in="SourceAlpha" type="matrix" values="0 0 0 0 0 0 0 0 0 0 0 0 0 0 0 0 0 0 127 0"/>
<feOffset dy="4"/>
<feGaussianBlur stdDeviation="2"/>
<feColorMatrix type="matrix" values="0 0 0 0 0 0 0 0 0 0 0 0 0 0 0 0 0 0 0.35 0"/>
<feBlend mode="normal" in2="BackgroundImageFix" result="effect1_dropShadow"/>
<feBlend mode="normal" in="SourceGraphic" in2="effect1_dropShadow" result="shape"/>
</filter>
<clipPath id="clip0">
<rect x="4" width="93.3753" height="93.3753" fill="white"/>
</clipPath>
</defs>
</svg>
