<svg width="150" height="133" viewBox="0 0 150 133" fill="none" xmlns="http://www.w3.org/2000/svg">
<g filter="url(#filter0_d)">
<path d="M143.752 106.439H46.1476C45.5592 106.439 44.995 106.673 44.579 107.089C44.163 107.505 43.9293 108.069 43.9293 108.658C43.9293 109.246 44.163 109.81 44.579 110.226C44.995 110.642 45.5592 110.876 46.1476 110.876H141.534V113.094C141.532 114.859 140.83 116.55 139.583 117.798C138.335 119.045 136.644 119.747 134.879 119.749H15.0915C13.3271 119.747 11.6355 119.045 10.3879 117.798C9.14034 116.55 8.43857 114.859 8.43658 113.094V110.876H28.4012C28.9895 110.876 29.5538 110.642 29.9698 110.226C30.3858 109.81 30.6195 109.246 30.6195 108.658C30.6195 108.069 30.3858 107.505 29.9698 107.089C29.5538 106.673 28.9895 106.439 28.4012 106.439H6.21829C5.62996 106.439 5.06573 106.673 4.64972 107.089C4.23371 107.505 4 108.069 4 108.658V113.094C4.0033 116.035 5.17292 118.854 7.25226 120.934C9.3316 123.013 12.1508 124.182 15.0915 124.186H134.879C137.82 124.182 140.639 123.013 142.718 120.934C144.798 118.854 145.967 116.035 145.971 113.094V108.658C145.971 108.069 145.737 107.505 145.321 107.089C144.905 106.673 144.341 106.439 143.752 106.439Z" fill="white"/>
<path d="M123.789 99.7869V48.7661C123.789 48.1778 123.556 47.6136 123.14 47.1976C122.724 46.7816 122.159 46.5479 121.571 46.5479H28.4029C27.8145 46.5479 27.2503 46.7816 26.8343 47.1976C26.4183 47.6136 26.1846 48.1778 26.1846 48.7661V99.7869C26.1846 100.375 26.4183 100.939 26.8343 101.355C27.2503 101.771 27.8145 102.005 28.4029 102.005H121.571C122.159 102.005 122.724 101.771 123.14 101.355C123.556 100.939 123.789 100.375 123.789 99.7869ZM119.353 97.5686H91.4578C84.0044 89.6069 83.8602 79.916 83.8602 79.8222C83.8602 79.3094 83.6825 78.8124 83.3574 78.4158C83.0323 78.0192 82.5798 77.7475 82.0769 77.6469L75.9489 76.4213C80.6725 72.8055 81.5138 72.8141 81.8515 71.502C82.22 70.0731 83.0532 68.8073 84.2201 67.904C85.3869 67.0007 86.8211 66.5112 88.2968 66.5125C97.9627 66.5125 97.4306 76.7469 104.813 81.6679C108.002 83.793 115.71 85.4318 119.353 86.1164V97.5686ZM119.353 81.5988C114.96 80.7326 109.27 79.3073 107.274 77.9766C102.498 74.7925 101.37 66.7188 94.5393 63.4069L96.5202 61.4262C96.9363 61.0102 97.17 60.446 97.17 59.8576C97.17 59.2693 96.9363 58.705 96.5202 58.289C96.1042 57.873 95.54 57.6393 94.9516 57.6393C94.3633 57.6393 93.799 57.873 93.383 58.289L90.515 61.1572V57.6393C90.515 57.051 90.2813 56.4868 89.8653 56.0707C89.4493 55.6547 88.8851 55.421 88.2968 55.421C87.7084 55.421 87.1442 55.6547 86.7282 56.0707C86.3122 56.4868 86.0785 57.051 86.0785 57.6393V61.1572L83.2105 58.289C83.0045 58.083 82.7599 57.9196 82.4908 57.8081C82.2217 57.6966 81.9332 57.6393 81.6419 57.6393C81.3506 57.6393 81.0621 57.6966 80.7929 57.8081C80.5238 57.9196 80.2793 58.083 80.0733 58.289C79.8673 58.495 79.7039 58.7395 79.5924 59.0087C79.4809 59.2778 79.4235 59.5663 79.4235 59.8576C79.4235 60.1489 79.4809 60.4374 79.5924 60.7065C79.7039 60.9757 79.8673 61.2202 80.0733 61.4262L82.4122 63.7649C80.2461 65.1172 78.6143 67.177 77.7934 69.5951L69.2472 75.8099C68.8993 76.0639 68.6329 76.4135 68.4803 76.8163C68.3277 77.219 68.2955 77.6574 68.3876 78.0781C68.4798 78.4988 68.6923 78.8836 68.9994 79.1857C69.3064 79.4877 69.6946 79.694 70.1167 79.7793L79.5431 81.6648C80.1898 87.4093 82.3132 92.8884 85.7063 97.5686H30.6212V50.9844H119.353V81.5988Z" fill="white"/>
<path d="M49.1177 18.0845C49.6217 18.388 50.2256 18.4789 50.7965 18.3372C51.3675 18.1955 51.8588 17.8328 52.1623 17.3289C62.5146 0.143513 87.4382 0.113844 97.8081 17.3289C99.3008 19.8073 103.128 17.5629 101.607 15.0396C89.6215 -4.85707 60.5342 -5.16874 48.3607 15.0396C48.2105 15.2892 48.1109 15.566 48.0676 15.8542C48.0243 16.1423 48.0382 16.4361 48.1085 16.7189C48.1788 17.0016 48.3041 17.2678 48.4773 17.5021C48.6504 17.7364 48.8681 17.9343 49.1177 18.0845Z" fill="white"/>
<path d="M90.1981 21.8971C91.6921 24.3796 95.5143 22.1269 93.9997 19.6097C85.3847 5.29231 64.5999 5.26736 55.9699 19.6097C55.8197 19.8593 55.7201 20.1361 55.6769 20.4242C55.6337 20.7123 55.6476 21.0061 55.7179 21.2888C55.7882 21.5715 55.9135 21.8376 56.0867 22.0718C56.2598 22.3061 56.4774 22.504 56.727 22.6542C56.9766 22.8044 57.2534 22.9039 57.5415 22.9472C57.8296 22.9904 58.1233 22.9765 58.4061 22.9062C58.977 22.7642 59.4682 22.4012 59.7715 21.8971C66.6662 10.4351 83.2904 10.4152 90.1981 21.8971Z" fill="white"/>
<path d="M82.5938 26.4563C84.0878 28.9385 87.9102 26.6859 86.3948 24.1684C81.2276 15.5827 68.7539 15.568 63.5775 24.1684C63.4249 24.418 63.3232 24.6954 63.2783 24.9845C63.2333 25.2736 63.246 25.5687 63.3156 25.8529C63.3852 26.1371 63.5104 26.4047 63.6838 26.6403C63.8573 26.8759 64.0756 27.0749 64.3263 27.2257C64.5769 27.3766 64.855 27.4764 65.1444 27.5194C65.4338 27.5624 65.7288 27.5477 66.0125 27.4762C66.2962 27.4046 66.563 27.2777 66.7974 27.1027C67.0318 26.9276 67.2293 26.7079 67.3785 26.4563C68.1681 25.1442 69.2836 24.0587 70.6166 23.3051C71.9496 22.5515 73.4549 22.1555 74.9861 22.1555C76.5174 22.1555 78.0227 22.5515 79.3557 23.3051C80.6887 24.0587 81.8042 25.1442 82.5938 26.4563Z" fill="white"/>
<path d="M74.9849 33.2374C76.21 33.2374 77.2032 32.2442 77.2032 31.0191C77.2032 29.7939 76.21 28.8008 74.9849 28.8008C73.7598 28.8008 72.7666 29.7939 72.7666 31.0191C72.7666 32.2442 73.7598 33.2374 74.9849 33.2374Z" fill="white"/>
<path d="M37.2749 110.876C38.5001 110.876 39.4932 109.883 39.4932 108.658C39.4932 107.433 38.5001 106.439 37.2749 106.439C36.0498 106.439 35.0566 107.433 35.0566 108.658C35.0566 109.883 36.0498 110.876 37.2749 110.876Z" fill="white"/>
<path d="M19.5298 102.004C20.1181 102.004 20.6824 101.771 21.0984 101.355C21.5144 100.939 21.7481 100.374 21.7481 99.786V48.7653C21.7501 47.0009 22.4519 45.3094 23.6995 44.0618C24.9471 42.8142 26.6386 42.1124 28.403 42.1104H121.571C123.336 42.1124 125.027 42.8142 126.275 44.0618C127.522 45.3094 128.224 47.0009 128.226 48.7653V99.786C128.226 100.374 128.46 100.939 128.876 101.355C129.292 101.771 129.856 102.004 130.444 102.004C131.033 102.004 131.597 101.771 132.013 101.355C132.429 100.939 132.663 100.374 132.663 99.786V48.7653C132.659 45.8247 131.49 43.0054 129.41 40.9261C127.331 38.8468 124.512 37.6771 121.571 37.6738H28.403C25.4624 37.6771 22.6431 38.8468 20.5638 40.9261C18.4844 43.0054 17.3148 45.8247 17.3115 48.7653V99.786C17.3115 100.374 17.5452 100.939 17.9612 101.355C18.3773 101.771 18.9415 102.004 19.5298 102.004Z" fill="white"/>
<path d="M37.2749 93.1309H43.9298C44.5181 93.1309 45.0824 92.8972 45.4984 92.4812C45.9144 92.0652 46.1481 91.501 46.1481 90.9126C46.1481 90.3243 45.9144 89.7601 45.4984 89.3441C45.0824 88.928 44.5181 88.6943 43.9298 88.6943H37.2749C36.6866 88.6943 36.1224 88.928 35.7064 89.3441C35.2904 89.7601 35.0566 90.3243 35.0566 90.9126C35.0566 91.501 35.2904 92.0652 35.7064 92.4812C36.1224 92.8972 36.6866 93.1309 37.2749 93.1309Z" fill="white"/>
<path d="M37.2749 84.2569H43.9298C44.5181 84.2569 45.0824 84.0232 45.4984 83.6072C45.9144 83.1912 46.1481 82.6269 46.1481 82.0386C46.1481 81.4503 45.9144 80.886 45.4984 80.47C45.0824 80.054 44.5181 79.8203 43.9298 79.8203H37.2749C36.6866 79.8203 36.1224 80.054 35.7064 80.47C35.2904 80.886 35.0566 81.4503 35.0566 82.0386C35.0566 82.6269 35.2904 83.1912 35.7064 83.6072C36.1224 84.0232 36.6866 84.2569 37.2749 84.2569Z" fill="white"/>
<path d="M37.2749 75.3858H43.9298C44.5181 75.3858 45.0824 75.1521 45.4984 74.7361C45.9144 74.3201 46.1481 73.7558 46.1481 73.1675C46.1481 72.5792 45.9144 72.015 45.4984 71.5989C45.0824 71.1829 44.5181 70.9492 43.9298 70.9492H37.2749C36.6866 70.9492 36.1224 71.1829 35.7064 71.5989C35.2904 72.015 35.0566 72.5792 35.0566 73.1675C35.0566 73.7558 35.2904 74.3201 35.7064 74.7361C36.1224 75.1521 36.6866 75.3858 37.2749 75.3858Z" fill="white"/>
<path d="M52.8042 93.1309H59.4591C60.0474 93.1309 60.6117 92.8972 61.0277 92.4812C61.4437 92.0652 61.6774 91.501 61.6774 90.9126C61.6774 90.3243 61.4437 89.7601 61.0277 89.3441C60.6117 88.928 60.0474 88.6943 59.4591 88.6943H52.8042C52.2159 88.6943 51.6517 88.928 51.2357 89.3441C50.8196 89.7601 50.5859 90.3243 50.5859 90.9126C50.5859 91.501 50.8196 92.0652 51.2357 92.4812C51.6517 92.8972 52.2159 93.1309 52.8042 93.1309Z" fill="white"/>
<path d="M52.8042 84.2569H59.4591C60.0474 84.2569 60.6117 84.0232 61.0277 83.6072C61.4437 83.1912 61.6774 82.6269 61.6774 82.0386C61.6774 81.4503 61.4437 80.886 61.0277 80.47C60.6117 80.054 60.0474 79.8203 59.4591 79.8203H52.8042C52.2159 79.8203 51.6517 80.054 51.2357 80.47C50.8196 80.886 50.5859 81.4503 50.5859 82.0386C50.5859 82.6269 50.8196 83.1912 51.2357 83.6072C51.6517 84.0232 52.2159 84.2569 52.8042 84.2569Z" fill="white"/>
<path d="M52.8042 75.3858H59.4591C60.0474 75.3858 60.6117 75.1521 61.0277 74.7361C61.4437 74.3201 61.6774 73.7558 61.6774 73.1675C61.6774 72.5792 61.4437 72.015 61.0277 71.5989C60.6117 71.1829 60.0474 70.9492 59.4591 70.9492H52.8042C52.2159 70.9492 51.6517 71.1829 51.2357 71.5989C50.8196 72.015 50.5859 72.5792 50.5859 73.1675C50.5859 73.7558 50.8196 74.3201 51.2357 74.7361C51.6517 75.1521 52.2159 75.3858 52.8042 75.3858Z" fill="white"/>
<path d="M37.2749 66.5118H43.9298C44.5181 66.5118 45.0824 66.2781 45.4984 65.8621C45.9144 65.446 46.1481 64.8818 46.1481 64.2935C46.1481 63.7052 45.9144 63.1409 45.4984 62.7249C45.0824 62.3089 44.5181 62.0752 43.9298 62.0752H37.2749C36.6866 62.0752 36.1224 62.3089 35.7064 62.7249C35.2904 63.1409 35.0566 63.7052 35.0566 64.2935C35.0566 64.8818 35.2904 65.446 35.7064 65.8621C36.1224 66.2781 36.6866 66.5118 37.2749 66.5118Z" fill="white"/>
</g>
<defs>
<filter id="filter0_d" x="0" y="0" width="149.971" height="132.186" filterUnits="userSpaceOnUse" color-interpolation-filters="sRGB">
<feFlood flood-opacity="0" result="BackgroundImageFix"/>
<feColorMatrix in="SourceAlpha" type="matrix" values="0 0 0 0 0 0 0 0 0 0 0 0 0 0 0 0 0 0 127 0"/>
<feOffset dy="4"/>
<feGaussianBlur stdDeviation="2"/>
<feColorMatrix type="matrix" values="0 0 0 0 0 0 0 0 0 0 0 0 0 0 0 0 0 0 0.31 0"/>
<feBlend mode="normal" in2="BackgroundImageFix" result="effect1_dropShadow"/>
<feBlend mode="normal" in="SourceGraphic" in2="effect1_dropShadow" result="shape"/>
</filter>
</defs>
</svg>
