<?xml version="1.0" encoding="UTF-8"?>
<svg width="18px" height="18px" viewBox="0 0 18 18" version="1.1" xmlns="http://www.w3.org/2000/svg" xmlns:xlink="http://www.w3.org/1999/xlink">
    <!-- Generator: Sketch 49.3 (51167) - http://www.bohemiancoding.com/sketch -->
    <title>icon-period</title>
    <desc>Created with Sketch.</desc>
    <defs></defs>
    <g id="Page-5" stroke="none" stroke-width="1" fill="none" fill-rule="evenodd">
        <g id="Landing-Page-(Logged-Out)" transform="translate(-480.000000, -2121.000000)" fill="#0A3565">
            <g id="Section" transform="translate(0.000000, 1480.000000)">
                <g id="Cards" transform="translate(160.000000, 200.000000)">
                    <g id="Card">
                        <g id="Info" transform="translate(1.000000, 418.000000)">
                            <g id="icon/period" transform="translate(318.000000, 22.000000)">
                                <path d="M10.625,1.90145833 C14.8139583,2.221875 18.125,5.73020833 18.125,10 C18.125,11.4289583 17.7485417,12.834375 17.0364583,14.0633333 C15.5883333,16.5683333 12.8920833,18.125 10,18.125 C5.51979167,18.125 1.875,14.4802083 1.875,10 C1.875,8.57083333 2.25145833,7.16583333 2.96354167,5.93666667 L4.045,6.56333333 C3.443125,7.60229167 3.125,8.790625 3.125,10 C3.125,13.7908333 6.20916667,16.875 10,16.875 C12.4472917,16.875 14.7289583,15.5577083 15.9545833,13.4372917 C16.556875,12.3977083 16.875,11.209375 16.875,10 C16.875,6.41979167 14.1239583,3.47166667 10.625,3.15479167 L10.625,5.625 L9.375,5.625 L9.375,1.875 L10.625,1.875 L10.625,1.90145833 Z M9.45089583,10.3346667 L5.91527083,6.79904167 C5.67110417,6.55508333 5.67110417,6.15925 5.91527083,5.91529167 C6.1594375,5.671125 6.5550625,5.671125 6.79902083,5.91529167 L10.3346458,9.45091667 C10.5788125,9.694875 10.5788125,10.0907083 10.3346458,10.3346667 C10.2125625,10.45675 10.0527708,10.5177917 9.89277083,10.5177917 C9.73297917,10.5177917 9.57297917,10.45675 9.45089583,10.3346667 Z" id="timer"></path>
                            </g>
                        </g>
                    </g>
                </g>
            </g>
        </g>
    </g>
</svg>