<?xml version="1.0" encoding="UTF-8"?>
<svg width="18px" height="18px" viewBox="0 0 18 18" version="1.1" xmlns="http://www.w3.org/2000/svg" xmlns:xlink="http://www.w3.org/1999/xlink">
    <!-- Generator: Sketch 49.3 (51167) - http://www.bohemiancoding.com/sketch -->
    <title>icon-roi</title>
    <desc>Created with Sketch.</desc>
    <defs></defs>
    <g id="Page-5" stroke="none" stroke-width="1" fill="none" fill-rule="evenodd">
        <g id="Landing-Page-(Logged-Out)" transform="translate(-182.000000, -2121.000000)" fill="#0A3565">
            <g id="Section" transform="translate(0.000000, 1480.000000)">
                <g id="Cards" transform="translate(160.000000, 200.000000)">
                    <g id="Card">
                        <g id="Info" transform="translate(1.000000, 418.000000)">
                            <g id="icon/roi" transform="translate(20.000000, 22.000000)">
                                <path d="M17.2411875,1.8749375 L18.1251458,2.75889583 L13.8793125,7.0043125 L10.2353542,5.6055625 L6.25535417,9.87389583 L1.8749375,7.9249375 L2.3836875,6.78222917 L5.94889583,8.36952083 L9.8961875,4.1368125 L13.5695208,5.54660417 L17.2411875,1.8749375 Z M1.875,18.125 L1.875,13.125 L3.125,13.125 L3.125,18.125 L1.875,18.125 Z M4.375,18.125 L4.375,13.125 L5.625,13.125 L5.625,18.125 L4.375,18.125 Z M6.875,18.125 L6.875,11.875 L8.12479167,11.875 L8.12479167,18.125 L6.875,18.125 Z M9.375,18.125 L9.375,10.625 L10.625,10.625 L10.625,18.125 L9.375,18.125 Z M11.875,18.125 L11.875,11.875 L13.125,11.875 L13.125,18.125 L11.875,18.125 Z M14.375,18.125 L14.375,13.125 L15.6247917,13.125 L15.6247917,18.125 L14.375,18.125 Z M16.875,18.125 L16.875,10.625 L18.125,10.625 L18.125,18.125 L16.875,18.125 Z" id="chart"></path>
                            </g>
                        </g>
                    </g>
                </g>
            </g>
        </g>
    </g>
</svg>